<svg width="16" height="14" viewBox="0 0 16 14" fill="none" xmlns="http://www.w3.org/2000/svg">
<path fill-rule="evenodd" clip-rule="evenodd" d="M13.4269 5.19138L13.4555 5.16285C14.1815 4.4393 14.1815 3.26903 13.4555 2.54548C12.7257 1.81817 11.5396 1.81817 10.8098 2.54548L8 5.34574L5.19017 2.54548C4.46037 1.81817 3.27432 1.81817 2.54452 2.54548C1.81849 3.26903 1.81849 4.4393 2.54452 5.16285L2.57314 5.19138L8 11.0554L13.4269 5.19138ZM8 14L1.13272 6.57948C-0.377573 5.07433 -0.377573 2.63401 1.13272 1.12886C2.64301 -0.376286 5.09168 -0.376287 6.60197 1.12886L8 2.52213L9.39803 1.12886C10.9083 -0.376287 13.357 -0.376286 14.8673 1.12886C16.3776 2.63401 16.3776 5.07433 14.8673 6.57948L8 14Z" fill="#242424"/>
</svg>
